<svg width="104" height="104" viewBox="0 0 104 104" fill="none" xmlns="http://www.w3.org/2000/svg">
<path d="M39.394 31.2606L40.4357 29.5533L37.394 31.2606H39.394ZM39.394 73.3944H37.394L40.4607 75.0862L39.394 73.3944ZM73.3542 51.9822L74.4209 53.674L74.3959 50.2749L73.3542 51.9822ZM37.394 31.2606V73.3944H41.394V31.2606H37.394ZM40.4607 75.0862L74.4209 53.674L72.2875 50.2904L38.3273 71.7026L40.4607 75.0862ZM74.3959 50.2749L40.4357 29.5533L38.3523 32.9679L72.3124 53.6894L74.3959 50.2749Z" fill="white"/>
<path d="M101.239 51.6479C101.239 79.0687 79.0226 101.296 51.6195 101.296C24.2164 101.296 2 79.0687 2 51.6479C2 24.2271 24.2164 2 51.6195 2C79.0226 2 101.239 24.2271 101.239 51.6479Z" stroke="white" stroke-width="4"/>
</svg>
